name C:\Users\u0101727\Documents\MyRepositories\upper-imu-dc\OpenSim\subject0\MA\ResultsMA\grid_4nodes_9dim\angles_22.mot
datacolumns 10
datarows 47
range 2275.01000000 2275.47000000
endheader 
time	clav_prot	clav_elev	scapula_abduction	scapula_elevation	scapula_upward_rot	scapula_winging	plane_elv	shoulder_elv	axial_rot	
       2275.01000000	        -50.00000000	         20.00000000	         -3.33333333	          3.33333333	          0.00000000	          0.00000000	         90.00000000	         26.66666667	         90.00000000	
       2275.02000000	        -38.33333333	         20.00000000	         -3.33333333	          3.33333333	          0.00000000	          0.00000000	         90.00000000	         26.66666667	         90.00000000	
       2275.03000000	        -26.66666667	         20.00000000	         -3.33333333	          3.33333333	          0.00000000	          0.00000000	         90.00000000	         26.66666667	         90.00000000	
       2275.04000000	        -15.00000000	         20.00000000	         -3.33333333	          3.33333333	          0.00000000	          0.00000000	         90.00000000	         26.66666667	         90.00000000	
       2275.05000000	        -50.00000000	        -10.00000000	         15.00000000	          3.33333333	          0.00000000	          0.00000000	         90.00000000	         26.66666667	         90.00000000	
       2275.06000000	        -38.33333333	        -10.00000000	         15.00000000	          3.33333333	          0.00000000	          0.00000000	         90.00000000	         26.66666667	         90.00000000	
       2275.07000000	        -26.66666667	        -10.00000000	         15.00000000	          3.33333333	          0.00000000	          0.00000000	         90.00000000	         26.66666667	         90.00000000	
       2275.08000000	        -15.00000000	        -10.00000000	         15.00000000	          3.33333333	          0.00000000	          0.00000000	         90.00000000	         26.66666667	         90.00000000	
       2275.09000000	        -50.00000000	          0.00000000	         15.00000000	          3.33333333	          0.00000000	          0.00000000	         90.00000000	         26.66666667	         90.00000000	
       2275.10000000	        -38.33333333	          0.00000000	         15.00000000	          3.33333333	          0.00000000	          0.00000000	         90.00000000	         26.66666667	         90.00000000	
       2275.11000000	        -26.66666667	          0.00000000	         15.00000000	          3.33333333	          0.00000000	          0.00000000	         90.00000000	         26.66666667	         90.00000000	
       2275.12000000	        -15.00000000	          0.00000000	         15.00000000	          3.33333333	          0.00000000	          0.00000000	         90.00000000	         26.66666667	         90.00000000	
       2275.13000000	        -50.00000000	         10.00000000	         15.00000000	          3.33333333	          0.00000000	          0.00000000	         90.00000000	         26.66666667	         90.00000000	
       2275.14000000	        -38.33333333	         10.00000000	         15.00000000	          3.33333333	          0.00000000	          0.00000000	         90.00000000	         26.66666667	         90.00000000	
       2275.15000000	        -26.66666667	         10.00000000	         15.00000000	          3.33333333	          0.00000000	          0.00000000	         90.00000000	         26.66666667	         90.00000000	
       2275.16000000	        -15.00000000	         10.00000000	         15.00000000	          3.33333333	          0.00000000	          0.00000000	         90.00000000	         26.66666667	         90.00000000	
       2275.17000000	        -50.00000000	         20.00000000	         15.00000000	          3.33333333	          0.00000000	          0.00000000	         90.00000000	         26.66666667	         90.00000000	
       2275.18000000	        -38.33333333	         20.00000000	         15.00000000	          3.33333333	          0.00000000	          0.00000000	         90.00000000	         26.66666667	         90.00000000	
       2275.19000000	        -26.66666667	         20.00000000	         15.00000000	          3.33333333	          0.00000000	          0.00000000	         90.00000000	         26.66666667	         90.00000000	
       2275.20000000	        -15.00000000	         20.00000000	         15.00000000	          3.33333333	          0.00000000	          0.00000000	         90.00000000	         26.66666667	         90.00000000	
       2275.21000000	        -50.00000000	        -10.00000000	        -40.00000000	         10.00000000	          0.00000000	          0.00000000	         90.00000000	         26.66666667	         90.00000000	
       2275.22000000	        -38.33333333	        -10.00000000	        -40.00000000	         10.00000000	          0.00000000	          0.00000000	         90.00000000	         26.66666667	         90.00000000	
       2275.23000000	        -26.66666667	        -10.00000000	        -40.00000000	         10.00000000	          0.00000000	          0.00000000	         90.00000000	         26.66666667	         90.00000000	
       2275.24000000	        -15.00000000	        -10.00000000	        -40.00000000	         10.00000000	          0.00000000	          0.00000000	         90.00000000	         26.66666667	         90.00000000	
       2275.25000000	        -50.00000000	          0.00000000	        -40.00000000	         10.00000000	          0.00000000	          0.00000000	         90.00000000	         26.66666667	         90.00000000	
       2275.26000000	        -38.33333333	          0.00000000	        -40.00000000	         10.00000000	          0.00000000	          0.00000000	         90.00000000	         26.66666667	         90.00000000	
       2275.27000000	        -26.66666667	          0.00000000	        -40.00000000	         10.00000000	          0.00000000	          0.00000000	         90.00000000	         26.66666667	         90.00000000	
       2275.28000000	        -15.00000000	          0.00000000	        -40.00000000	         10.00000000	          0.00000000	          0.00000000	         90.00000000	         26.66666667	         90.00000000	
       2275.29000000	        -50.00000000	         10.00000000	        -40.00000000	         10.00000000	          0.00000000	          0.00000000	         90.00000000	         26.66666667	         90.00000000	
       2275.30000000	        -38.33333333	         10.00000000	        -40.00000000	         10.00000000	          0.00000000	          0.00000000	         90.00000000	         26.66666667	         90.00000000	
       2275.31000000	        -26.66666667	         10.00000000	        -40.00000000	         10.00000000	          0.00000000	          0.00000000	         90.00000000	         26.66666667	         90.00000000	
       2275.32000000	        -15.00000000	         10.00000000	        -40.00000000	         10.00000000	          0.00000000	          0.00000000	         90.00000000	         26.66666667	         90.00000000	
       2275.33000000	        -50.00000000	         20.00000000	        -40.00000000	         10.00000000	          0.00000000	          0.00000000	         90.00000000	         26.66666667	         90.00000000	
       2275.34000000	        -38.33333333	         20.00000000	        -40.00000000	         10.00000000	          0.00000000	          0.00000000	         90.00000000	         26.66666667	         90.00000000	
       2275.35000000	        -26.66666667	         20.00000000	        -40.00000000	         10.00000000	          0.00000000	          0.00000000	         90.00000000	         26.66666667	         90.00000000	
       2275.36000000	        -15.00000000	         20.00000000	        -40.00000000	         10.00000000	          0.00000000	          0.00000000	         90.00000000	         26.66666667	         90.00000000	
       2275.37000000	        -50.00000000	        -10.00000000	        -21.66666667	         10.00000000	          0.00000000	          0.00000000	         90.00000000	         26.66666667	         90.00000000	
       2275.38000000	        -38.33333333	        -10.00000000	        -21.66666667	         10.00000000	          0.00000000	          0.00000000	         90.00000000	         26.66666667	         90.00000000	
       2275.39000000	        -26.66666667	        -10.00000000	        -21.66666667	         10.00000000	          0.00000000	          0.00000000	         90.00000000	         26.66666667	         90.00000000	
       2275.40000000	        -15.00000000	        -10.00000000	        -21.66666667	         10.00000000	          0.00000000	          0.00000000	         90.00000000	         26.66666667	         90.00000000	
       2275.41000000	        -50.00000000	          0.00000000	        -21.66666667	         10.00000000	          0.00000000	          0.00000000	         90.00000000	         26.66666667	         90.00000000	
       2275.42000000	        -38.33333333	          0.00000000	        -21.66666667	         10.00000000	          0.00000000	          0.00000000	         90.00000000	         26.66666667	         90.00000000	
       2275.43000000	        -26.66666667	          0.00000000	        -21.66666667	         10.00000000	          0.00000000	          0.00000000	         90.00000000	         26.66666667	         90.00000000	
       2275.44000000	        -15.00000000	          0.00000000	        -21.66666667	         10.00000000	          0.00000000	          0.00000000	         90.00000000	         26.66666667	         90.00000000	
       2275.45000000	        -50.00000000	         10.00000000	        -21.66666667	         10.00000000	          0.00000000	          0.00000000	         90.00000000	         26.66666667	         90.00000000	
       2275.46000000	        -38.33333333	         10.00000000	        -21.66666667	         10.00000000	          0.00000000	          0.00000000	         90.00000000	         26.66666667	         90.00000000	
       2275.47000000	        -26.66666667	         10.00000000	        -21.66666667	         10.00000000	          0.00000000	          0.00000000	         90.00000000	         26.66666667	         90.00000000	
